<svg width="23" height="22" viewBox="0 0 23 22" fill="none" xmlns="http://www.w3.org/2000/svg">
<path d="M18.7598 15.4858C17.6455 15.2907 16.5818 14.9249 15.6049 14.4007C15.1272 14.1385 14.4748 14.1881 14.109 14.4523L11.792 15.639C9.64038 13.9565 8.43427 12.2391 7.59702 9.66477L9.44542 7.93405C9.90309 7.6132 10.1423 7.06935 10.0683 6.50681C9.90661 5.40426 9.92325 4.28003 10.1184 3.16521C10.2595 2.35986 9.71896 1.58997 8.91365 1.44899L5.57109 0.863832C4.76579 0.722854 3.9959 1.26335 3.85492 2.06866C2.23893 11.2996 8.43402 20.124 17.6649 21.74C18.4702 21.881 19.2401 21.3405 19.3811 20.5352L19.9646 17.2019C20.1055 16.3967 19.5651 15.6268 18.7598 15.4858Z" fill="white"/>
</svg>
