<svg width="36" height="37" viewBox="0 0 36 37" fill="none" xmlns="http://www.w3.org/2000/svg">
<path d="M30.7562 23.6277C28.824 21.6956 26.5242 20.2652 24.0149 19.3994C26.7024 17.5484 28.468 14.4506 28.468 10.9478C28.468 5.29271 23.8672 0.691895 18.2121 0.691895C12.557 0.691895 7.95621 5.29271 7.95621 10.9478C7.95621 14.4506 9.72181 17.5484 12.4093 19.3994C9.90011 20.2652 7.6003 21.6956 5.6681 23.6277C2.31747 26.9784 0.472168 31.4333 0.472168 36.1718H3.24403C3.24403 27.9183 9.95867 21.2037 18.2121 21.2037C26.4655 21.2037 33.1802 27.9183 33.1802 36.1718H35.952C35.952 31.4333 34.1067 26.9784 30.7562 23.6277ZM18.2121 18.4318C14.0854 18.4318 10.7281 15.0746 10.7281 10.9478C10.7281 6.82104 14.0854 3.46376 18.2121 3.46376C22.3388 3.46376 25.6961 6.82104 25.6961 10.9478C25.6961 15.0746 22.3388 18.4318 18.2121 18.4318Z" fill="white"/>
</svg>
