<svg width="141" height="142" viewBox="0 0 141 142" fill="none" xmlns="http://www.w3.org/2000/svg">
<g filter="url(#filter0_d_0_132)">
<circle cx="70.4082" cy="70.6505" r="41.9308" fill="white"/>
</g>
<path d="M56.0807 81.1111C52.9159 81.1111 50.3422 83.6848 50.3422 86.8496C50.3422 90.0144 52.9159 92.5881 56.0807 92.5881C59.2455 92.5881 61.8192 90.0144 61.8192 86.8496C61.8192 83.6848 59.2454 81.1111 56.0807 81.1111ZM56.0807 90.6752C53.9708 90.6752 52.255 88.9594 52.255 86.8496C52.255 84.7397 53.9709 83.0239 56.0807 83.0239C58.1905 83.0239 59.9063 84.7398 59.9063 86.8496C59.9063 88.9594 58.1905 90.6752 56.0807 90.6752Z" fill="#65C466"/>
<path d="M88.5989 81.1111C85.4341 81.1111 82.8604 83.6848 82.8604 86.8496C82.8604 90.0144 85.4341 92.5881 88.5989 92.5881C91.7637 92.5881 94.3374 90.0144 94.3374 86.8496C94.3374 83.6848 91.7637 81.1111 88.5989 81.1111ZM88.5989 90.6752C86.489 90.6752 84.7733 88.9594 84.7733 86.8496C84.7733 84.7397 86.4891 83.0239 88.5989 83.0239C90.7088 83.0239 92.4246 84.7398 92.4246 86.8496C92.4246 88.9594 90.7088 90.6752 88.5989 90.6752Z" fill="#65C466"/>
<path d="M99.924 75.8117L91.3162 62.4218C91.1403 62.1482 90.8371 61.9828 90.5118 61.9828H79.9913C79.4624 61.9828 79.0349 62.4113 79.0349 62.9392V86.8496C79.0349 87.3785 79.4624 87.806 79.9913 87.806H83.8169V85.8931H80.9477V63.8957H89.9896L98.1632 76.6103V85.8933H93.3811V87.8061H99.1196C99.6485 87.8061 100.076 87.3786 100.076 86.8497V76.3291C100.076 76.1464 100.024 75.9656 99.924 75.8117Z" fill="#65C466"/>
<path d="M84.7732 74.4161V67.7212H92.4246V65.8083H83.8168C83.2879 65.8083 82.8604 66.2368 82.8604 66.7647V75.3724C82.8604 75.9013 83.2879 76.3288 83.8168 76.3288H98.1631V74.4159H84.7732V74.4161Z" fill="#65C466"/>
<path d="M79.9914 55.3249H43.6475C43.1196 55.3249 42.6911 55.7534 42.6911 56.2813V86.8867C42.6911 87.4156 43.1196 87.8431 43.6475 87.8431H51.2989V85.9302H44.604V57.2377H79.0351V85.9302H60.863V87.8431H79.9914C80.5203 87.8431 80.9478 87.4156 80.9478 86.8867V56.2813C80.9478 55.7534 80.5203 55.3249 79.9914 55.3249Z" fill="#65C466"/>
<path d="M49.386 82.0671H43.6475V83.9799H49.386V82.0671Z" fill="#65C466"/>
<path d="M79.0356 82.0671H62.7765V83.9799H79.0356V82.0671Z" fill="#65C466"/>
<path d="M99.1204 82.0671H95.2947V83.9799H99.1204V82.0671Z" fill="#65C466"/>
<path d="M79.9913 59.1133H46.5166V61.0262H79.9913V59.1133Z" fill="#65C466"/>
<path d="M57.0383 85.8926H55.1254V87.8055H57.0383V85.8926Z" fill="#65C466"/>
<path d="M89.5552 85.8926H87.6423V87.8055H89.5552V85.8926Z" fill="#65C466"/>
<path d="M59.9065 51.4619H46.5166V53.3748H59.9065V51.4619Z" fill="#65C466"/>
<path d="M44.604 51.4619H42.6911V53.3748H44.604V51.4619Z" fill="#65C466"/>
<defs>
<filter id="filter0_d_0_132" x="0.049778" y="0.292088" width="140.717" height="140.717" filterUnits="userSpaceOnUse" color-interpolation-filters="sRGB">
<feFlood flood-opacity="0" result="BackgroundImageFix"/>
<feColorMatrix in="SourceAlpha" type="matrix" values="0 0 0 0 0 0 0 0 0 0 0 0 0 0 0 0 0 0 127 0" result="hardAlpha"/>
<feOffset/>
<feGaussianBlur stdDeviation="14.2138"/>
<feColorMatrix type="matrix" values="0 0 0 0 0.870833 0 0 0 0 0.870833 0 0 0 0 0.870833 0 0 0 1 0"/>
<feBlend mode="normal" in2="BackgroundImageFix" result="effect1_dropShadow_0_132"/>
<feBlend mode="normal" in="SourceGraphic" in2="effect1_dropShadow_0_132" result="shape"/>
</filter>
</defs>
</svg>
