<svg width="33" height="33" viewBox="0 0 33 33" fill="none" xmlns="http://www.w3.org/2000/svg">
<path d="M23.241 32.1472C22.2087 32.1472 21.1851 31.9647 20.1841 31.601C15.7746 29.9992 11.6815 27.3902 8.34738 24.0561C5.01325 20.7221 2.40427 16.629 0.802475 12.2194C0.287738 10.8023 0.135834 9.33945 0.351135 7.87138C0.55282 6.49625 1.08548 5.16129 1.8916 4.01077C2.70127 2.85519 3.78071 1.89404 5.01318 1.23128C6.32748 0.524536 7.762 0.166138 9.27705 0.166138C9.74825 0.166138 10.1555 0.495367 10.2542 0.956075L11.8229 8.27638C11.8939 8.60785 11.792 8.95276 11.5524 9.19249L8.87199 11.8728C11.4005 16.9 15.5034 21.0029 20.5306 23.5314L23.2109 20.851C23.4506 20.6114 23.7955 20.5096 24.127 20.5805L31.4473 22.1492C31.9081 22.2479 32.2373 22.6551 32.2373 23.1264C32.2373 24.6414 31.8789 26.076 31.1721 27.3903C30.5093 28.6227 29.5481 29.7022 28.3926 30.5119C27.2421 31.318 25.9071 31.8506 24.5319 32.0523C24.101 32.1156 23.6702 32.1471 23.241 32.1472V32.1472ZM8.47855 2.20859C6.48013 2.4292 4.70638 3.47667 3.5285 5.15779C2.20396 7.04816 1.8951 9.37325 2.6811 11.537C5.76065 20.0145 12.389 26.6429 20.8665 29.7224C23.0302 30.5084 25.3554 30.1996 27.2457 28.875C28.9269 27.6971 29.9743 25.9234 30.1949 23.925L24.2399 22.6489L21.4407 25.4481C21.1428 25.746 20.6902 25.8251 20.3091 25.646C14.3635 22.8528 9.55075 18.0401 6.75752 12.0945C6.57844 11.7133 6.65752 11.2607 6.95539 10.9629L9.75462 8.16364L8.47855 2.20859Z" fill="#C2C1C2"/>
<path d="M31.2369 17.1545C30.685 17.1545 30.2375 16.7071 30.2375 16.1552C30.2375 8.44042 23.9611 2.16402 16.2464 2.16402C15.6945 2.16402 15.247 1.71655 15.247 1.16465C15.247 0.61275 15.6945 0.165283 16.2464 0.165283C20.5175 0.165283 24.5329 1.82848 27.553 4.84857C30.5731 7.86866 32.2363 11.884 32.2363 16.1552C32.2363 16.7071 31.7888 17.1545 31.2369 17.1545Z" fill="#C2C1C2"/>
<path d="M27.2394 17.1544C26.6875 17.1544 26.24 16.7069 26.24 16.155C26.24 10.6445 21.7569 6.16133 16.2464 6.16133C15.6945 6.16133 15.247 5.71387 15.247 5.16196C15.247 4.61006 15.6945 4.1626 16.2464 4.1626C22.859 4.1626 28.2388 9.54238 28.2388 16.155C28.2388 16.7069 27.7914 17.1544 27.2394 17.1544Z" fill="#C2C1C2"/>
<path d="M23.2419 17.1545C22.69 17.1545 22.2426 16.707 22.2426 16.1551C22.2426 12.8487 19.5527 10.1589 16.2464 10.1589C15.6945 10.1589 15.247 9.71142 15.247 9.15952C15.247 8.60762 15.6945 8.16016 16.2464 8.16016C20.6548 8.16016 24.2413 11.7466 24.2413 16.1551C24.2413 16.707 23.7939 17.1545 23.2419 17.1545Z" fill="#C2C1C2"/>
</svg>
