<svg width="141" height="142" viewBox="0 0 141 142" fill="none" xmlns="http://www.w3.org/2000/svg">
<g filter="url(#filter0_d_0_101)">
<circle cx="70.579" cy="70.6505" r="41.9308" fill="white"/>
</g>
<g clip-path="url(#clip0_0_101)">
<path d="M71.2898 67.5931C74.4124 67.5931 76.9529 65.0525 76.9529 61.9297C76.9529 58.807 74.4124 56.2664 71.2898 56.2664C68.1669 56.2664 65.6263 58.807 65.6263 61.9297C65.6263 65.0525 68.1669 67.5931 71.2898 67.5931ZM71.2898 59.0981C72.8511 59.0981 74.1213 60.3684 74.1213 61.9297C74.1213 63.4911 72.8511 64.7614 71.2898 64.7614C69.7283 64.7614 68.4579 63.4911 68.4579 61.9297C68.4579 60.3684 69.7283 59.0981 71.2898 59.0981Z" fill="#65C466"/>
<path d="M89.3043 76.9191H79.8285C84.2532 72.6957 88.2791 68.5558 88.2791 61.345C88.2791 51.6294 80.9838 44.355 71.2894 44.355C61.5753 44.355 54.2992 51.651 54.2992 61.345C54.2992 68.5558 58.3253 72.6957 62.75 76.9191H53.2741L48.0964 92.682H94.482L89.3043 76.9191ZM57.1309 61.345C57.1309 53.1411 63.0854 47.1867 71.2894 47.1867C79.4932 47.1867 85.4475 53.1411 85.4475 61.345C85.4475 70.5232 77.7004 73.7739 71.2894 81.6785C69.3627 79.3031 67.3022 77.3424 65.2985 75.436C60.7352 71.094 57.1309 67.6644 57.1309 61.345V61.345ZM53.1542 86.358H63.3605V83.5263H54.0843L55.3245 79.7508H65.6259V79.6872C69.3869 83.4167 70.4044 85.286 71.2894 86.4007C72.1963 85.2584 73.1805 83.428 76.9525 79.6874V79.7508H87.254L88.4942 83.5263H79.2178V86.358H89.4242L90.5713 89.8504H52.0071L53.1542 86.358Z" fill="#65C466"/>
</g>
<defs>
<filter id="filter0_d_0_101" x="0.220615" y="0.292088" width="140.717" height="140.717" filterUnits="userSpaceOnUse" color-interpolation-filters="sRGB">
<feFlood flood-opacity="0" result="BackgroundImageFix"/>
<feColorMatrix in="SourceAlpha" type="matrix" values="0 0 0 0 0 0 0 0 0 0 0 0 0 0 0 0 0 0 127 0" result="hardAlpha"/>
<feOffset/>
<feGaussianBlur stdDeviation="14.2138"/>
<feColorMatrix type="matrix" values="0 0 0 0 0.870833 0 0 0 0 0.870833 0 0 0 0 0.870833 0 0 0 1 0"/>
<feBlend mode="normal" in2="BackgroundImageFix" result="effect1_dropShadow_0_101"/>
<feBlend mode="normal" in="SourceGraphic" in2="effect1_dropShadow_0_101" result="shape"/>
</filter>
<clipPath id="clip0_0_101">
<rect width="48.327" height="48.327" fill="white" transform="translate(47.126 44.355)"/>
</clipPath>
</defs>
</svg>
