<svg width="142" height="142" viewBox="0 0 142 142" fill="none" xmlns="http://www.w3.org/2000/svg">
<g filter="url(#filter0_d_0_70)">
<circle cx="71.1644" cy="70.6505" r="41.9308" fill="white"/>
</g>
<path d="M79.0407 51.9917C78.5352 48.4486 75.4511 45.7764 71.8673 45.7764C69.5626 45.7764 67.3737 46.8886 66.0127 48.7525C65.7347 49.1327 65.8179 49.6659 66.198 49.9439C66.5769 50.2209 67.1114 50.1387 67.3889 49.7581C68.4306 48.3327 70.1045 47.4815 71.8671 47.4815C74.608 47.4815 76.9659 49.524 77.3526 52.2322C77.4135 52.6575 77.7784 52.9645 78.1958 52.9645C78.2355 52.9645 78.2764 52.9615 78.3171 52.956C78.7832 52.8893 79.1071 52.4575 79.0407 51.9917Z" fill="#65C466"/>
<path d="M91.3533 61.5352L88.7958 57.2726C88.642 57.0156 88.3645 56.8587 88.0648 56.8587H85.6139C85.1433 56.8587 84.7614 57.2406 84.7614 57.7112C84.7614 58.1817 85.1433 58.5636 85.6139 58.5636H87.5822L89.1167 61.1211H54.6172L56.1517 58.5636H57.0546C57.5251 58.5636 57.907 58.1817 57.907 57.7112C57.907 57.2406 57.5251 56.8587 57.0546 56.8587H55.6692C55.3695 56.8587 55.092 57.0156 54.9381 57.2726L52.3806 61.5352C52.2225 61.799 52.2188 62.1269 52.3699 62.3942C52.521 62.6614 52.8042 62.8267 53.1116 62.8267H90.6223C90.9298 62.8267 91.2127 62.6614 91.3641 62.3942C91.5154 62.1269 91.5114 61.7985 91.3533 61.5352Z" fill="#65C466"/>
<path d="M87.104 53.6747C86.9846 53.4821 86.7941 53.3455 86.5738 53.294L74.9522 50.5759C74.7322 50.5242 74.5004 50.5627 74.3081 50.6816C74.1163 50.8009 73.9794 50.9915 73.9279 51.2118L73.0515 54.9582C72.9441 55.4165 73.2289 55.8751 73.6874 55.982C74.1457 56.0893 74.6048 55.8046 74.7117 55.3461L75.394 52.4301L85.3552 54.7601L83.7899 61.4524C83.6825 61.9107 83.9673 62.3693 84.4258 62.4762C84.4915 62.4914 84.5567 62.4987 84.6211 62.4987C85.0083 62.4987 85.3587 62.2334 85.4498 61.8406L87.2094 54.3183C87.2614 54.0983 87.2234 53.8665 87.104 53.6747Z" fill="#65C466"/>
<path d="M72.3182 55.6898L71.5415 49.1199C71.515 48.8953 71.4004 48.6903 71.2225 48.5504C71.0447 48.4105 70.8202 48.3466 70.5946 48.3731L56.3359 50.0585C55.8686 50.1139 55.5344 50.5375 55.5896 51.0053L56.8846 61.963C56.936 62.3968 57.3039 62.7158 57.7303 62.7158C57.7635 62.7158 57.7977 62.7135 57.8317 62.7098C58.2987 62.6543 58.6329 62.2307 58.578 61.7629L57.3829 51.6512L69.9485 50.1661L70.6249 55.8893C70.6803 56.3569 71.1019 56.6891 71.5717 56.6361C72.039 56.5812 72.3732 56.1573 72.3182 55.6898Z" fill="#65C466"/>
<path d="M79.0608 61.65L77.3687 54.6133C77.3157 54.3938 77.1776 54.2037 76.9851 54.0856C76.7925 53.9684 76.5615 53.9317 76.3404 53.9842L62.6069 57.287C62.1491 57.3969 61.8674 57.8574 61.9773 58.3152L62.8229 61.8324C62.9328 62.2907 63.3934 62.5726 63.8509 62.462C64.3088 62.3521 64.5905 61.8915 64.4806 61.4337L63.834 58.7453L75.9098 55.8416L77.4027 62.0491C77.4963 62.44 77.846 62.7023 78.2309 62.7023C78.297 62.7023 78.364 62.6945 78.4312 62.6783C78.889 62.5681 79.1707 62.1078 79.0608 61.65Z" fill="#65C466"/>
<path d="M91.4749 61.9305C91.4514 61.4775 91.0773 61.1218 90.6232 61.1218H53.1125C52.6585 61.1218 52.2843 61.4772 52.2609 61.9305L50.5557 95.1786C50.5438 95.4118 50.6282 95.6401 50.789 95.8094C50.9501 95.9785 51.1734 96.0747 51.4072 96.0747H92.3278C92.5613 96.0747 92.7849 95.9788 92.9467 95.8094C93.1073 95.6401 93.1917 95.4121 93.18 95.1786L91.4749 61.9305ZM52.3043 94.3696L53.922 62.8267H89.8127L91.4304 94.3696H52.3043Z" fill="#65C466"/>
<path d="M78.2612 64.5316C76.8508 64.5316 75.7037 65.6788 75.7037 67.0892C75.7037 68.4995 76.8508 69.6467 78.2612 69.6467C79.6716 69.6467 80.8188 68.4995 80.8188 67.0892C80.8188 65.6788 79.6716 64.5316 78.2612 64.5316ZM78.2612 67.9418C77.7909 67.9418 77.4088 67.5595 77.4088 67.0894C77.4088 66.6194 77.7912 66.237 78.2612 66.237C78.7313 66.237 79.1136 66.6194 79.1136 67.0894C79.1136 67.5595 78.7313 67.9418 78.2612 67.9418Z" fill="#65C466"/>
<path d="M65.4743 64.5316C64.064 64.5316 62.9168 65.6788 62.9168 67.0892C62.9168 68.4995 64.064 69.6467 65.4743 69.6467C66.8847 69.6467 68.0319 68.4995 68.0319 67.0892C68.0319 65.6788 66.8847 64.5316 65.4743 64.5316ZM65.4743 67.9418C65.0043 67.9418 64.6219 67.5595 64.6219 67.0894C64.6219 66.6194 65.0043 66.237 65.4743 66.237C65.9444 66.237 66.3268 66.6194 66.3268 67.0894C66.3268 67.5595 65.9444 67.9418 65.4743 67.9418Z" fill="#65C466"/>
<path d="M78.2615 67.0891H78.1958C77.7252 67.0891 77.3433 67.471 77.3433 67.9416C77.3433 68.058 77.3663 68.1691 77.409 68.2703V72.6303C77.409 75.6856 74.9232 78.1717 71.8676 78.1717C68.8121 78.1717 66.3262 75.6859 66.3262 72.6303V67.9418C66.3262 67.4713 65.9443 67.0894 65.4738 67.0894C65.0032 67.0894 64.6213 67.4713 64.6213 67.9418V72.6306C64.6213 76.6262 67.872 79.8768 71.8676 79.8768C75.8633 79.8768 79.1139 76.6262 79.1139 72.6306V67.9418C79.1139 67.4713 78.732 67.0891 78.2615 67.0891Z" fill="#65C466"/>
<defs>
<filter id="filter0_d_0_70" x="0.806004" y="0.292088" width="140.717" height="140.717" filterUnits="userSpaceOnUse" color-interpolation-filters="sRGB">
<feFlood flood-opacity="0" result="BackgroundImageFix"/>
<feColorMatrix in="SourceAlpha" type="matrix" values="0 0 0 0 0 0 0 0 0 0 0 0 0 0 0 0 0 0 127 0" result="hardAlpha"/>
<feOffset/>
<feGaussianBlur stdDeviation="14.2138"/>
<feColorMatrix type="matrix" values="0 0 0 0 0.870833 0 0 0 0 0.870833 0 0 0 0 0.870833 0 0 0 1 0"/>
<feBlend mode="normal" in2="BackgroundImageFix" result="effect1_dropShadow_0_70"/>
<feBlend mode="normal" in="SourceGraphic" in2="effect1_dropShadow_0_70" result="shape"/>
</filter>
</defs>
</svg>
