<svg width="22" height="23" viewBox="0 0 22 23" fill="none" xmlns="http://www.w3.org/2000/svg">
<path d="M20.2068 14.7309C18.9014 14.7309 17.6197 14.5268 16.4052 14.1254C15.81 13.9224 15.0784 14.1086 14.7152 14.4817L12.3179 16.2914C9.53768 14.8073 7.82514 13.0954 6.36134 10.336L8.1178 8.0012C8.57414 7.54547 8.73782 6.87975 8.54172 6.25512C8.13862 5.03418 7.93385 3.7531 7.93385 2.44721C7.93391 1.50382 7.16642 0.736328 6.22309 0.736328H2.30762C1.36429 0.736328 0.596802 1.50382 0.596802 2.44715C0.596802 13.2602 9.39371 22.0571 20.2068 22.0571C21.1501 22.0571 21.9176 21.2896 21.9176 20.3462V16.4417C21.9175 15.4984 21.15 14.7309 20.2068 14.7309Z" fill="#959AA6"/>
</svg>
