<svg width="35" height="35" viewBox="0 0 35 35" fill="none" xmlns="http://www.w3.org/2000/svg">
<path d="M34.5959 32.0457L24.6863 22.1361C26.5658 19.8157 27.6972 16.8657 27.6972 13.6538C27.6972 6.2082 21.6397 0.150635 14.194 0.150635C6.74842 0.150635 0.690918 6.2082 0.690918 13.6538C0.690918 21.0994 6.74849 27.157 14.1941 27.157C17.4059 27.157 20.3559 26.0255 22.6764 24.146L32.586 34.0557C32.8637 34.3332 33.3135 34.3332 33.5912 34.0557L34.596 33.0508C34.8735 32.7732 34.8735 32.3232 34.5959 32.0457ZM14.1941 24.3142C8.31563 24.3142 3.53371 19.5323 3.53371 13.6538C3.53371 7.77535 8.31563 2.99343 14.1941 2.99343C20.0726 2.99343 24.8545 7.77535 24.8545 13.6538C24.8545 19.5323 20.0726 24.3142 14.1941 24.3142Z" fill="#414141"/>
</svg>
