<svg width="142" height="142" viewBox="0 0 142 142" fill="none" xmlns="http://www.w3.org/2000/svg">
<g filter="url(#filter0_d_0_108)">
<circle cx="70.9936" cy="70.6505" r="41.9308" fill="white"/>
</g>
<path d="M94.868 51.4619H52.4897C50.4545 51.4619 48.8046 53.1118 48.8046 55.147V84.6275H44.1983C43.6895 84.6275 43.277 85.04 43.277 85.5488C43.277 87.584 44.9269 89.2339 46.9621 89.2339H73.6788V100.289C73.6789 100.798 74.0914 101.21 74.6003 101.21C74.8446 101.21 75.0787 101.113 75.2514 100.94L80.1277 96.0641L85.004 100.94C85.1767 101.113 85.4109 101.21 85.6553 101.21C85.7764 101.211 85.8963 101.187 86.0081 101.14C86.3523 100.998 86.5767 100.662 86.5766 100.289V89.2339H89.3404C91.3756 89.2339 93.0254 87.584 93.0254 85.5488V56.0682H97.6318C98.1405 56.0682 98.553 55.6558 98.553 55.147C98.553 53.1118 96.9032 51.4619 94.868 51.4619ZM91.1829 55.147V84.6275H87.4978V86.4701H90.9351C90.6061 87.0399 89.9983 87.391 89.3404 87.3913H86.5766V86.4701H84.734V98.0651L80.779 94.1101C80.4193 93.7505 79.8361 93.7505 79.4764 94.1101L75.5214 98.0651V86.4701H73.6788V87.3913H46.9621C46.3042 87.391 45.6964 87.0399 45.3674 86.4701H49.7259H72.7576V84.6275H50.6472V55.147C50.6472 54.1293 51.472 53.3044 52.4897 53.3044H91.6951C91.3636 53.8622 91.1867 54.4982 91.1829 55.147ZM93.2733 54.2257C93.7829 53.345 94.9101 53.0442 95.791 53.554C96.0698 53.7153 96.3013 53.947 96.4627 54.2257H93.2733Z" fill="#65C466"/>
<path d="M88.8118 80.2928L87.6316 78.1784L88.8164 76.066C89.0661 75.6226 88.9091 75.0609 88.4658 74.8112C88.4435 74.7987 88.4206 74.7869 88.3972 74.7762L86.1981 73.7693L85.9144 71.3648C85.8544 70.8596 85.3961 70.4987 84.8909 70.5586C84.8674 70.5614 84.844 70.5651 84.8209 70.5697L82.4458 71.0405L80.8032 69.2615C80.4355 68.888 79.8347 68.8833 79.4613 69.251C79.4577 69.2545 79.4542 69.2581 79.4508 69.2615L77.8082 71.0405L75.4331 70.5697C74.934 70.471 74.4493 70.7956 74.3507 71.2947C74.3461 71.3179 74.3424 71.3413 74.3396 71.3648L74.0559 73.7693L71.8568 74.7781C71.3942 74.9898 71.1908 75.5366 71.4026 75.9992C71.4133 76.0226 71.4249 76.0455 71.4376 76.0678L72.6224 78.1784L71.4376 80.2909C71.1879 80.7343 71.3449 81.296 71.7882 81.5457C71.8105 81.5582 71.8334 81.57 71.8568 81.5807L74.0559 82.5895L74.3396 84.9958C74.3996 85.501 74.8579 85.8619 75.3631 85.8019C75.3866 85.7992 75.41 85.7955 75.4331 85.7909L77.8082 85.3201L79.4508 87.0991C79.7964 87.4725 80.3792 87.4951 80.7527 87.1496C80.7702 87.1334 80.787 87.1166 80.8032 87.0991L82.4458 85.3201L84.8209 85.7909C85.0726 85.8424 85.3343 85.7848 85.5413 85.6324C85.7472 85.4806 85.8807 85.25 85.9098 84.9958L86.1935 82.5913L88.3926 81.5825C88.8552 81.3708 89.0586 80.824 88.8468 80.3614C88.8361 80.338 88.8243 80.3151 88.8118 80.2928ZM85.7725 78.628L86.7205 80.3195L84.959 81.1274C84.667 81.2615 84.4659 81.538 84.4284 81.8571L84.2018 83.7853L82.2975 83.4085C81.9837 83.3433 81.6588 83.4483 81.4426 83.6849L80.127 85.111L78.8114 83.6867C78.6371 83.4982 78.392 83.391 78.1352 83.391C78.0751 83.3906 78.0152 83.3968 77.9565 83.4094L76.0522 83.7862L75.8256 81.858C75.7881 81.5389 75.587 81.2624 75.295 81.1283L73.5335 80.3204L74.4815 78.6289C74.6399 78.348 74.6437 78.0067 74.4815 77.7279V77.7316L73.5335 76.0402L75.295 75.2322C75.587 75.0982 75.7881 74.8217 75.8256 74.5026L76.0522 72.5744L77.9565 72.9512C78.2702 73.0156 78.5947 72.9106 78.8114 72.6748L80.127 71.2459L81.4426 72.6702C81.6587 72.9068 81.9837 73.0119 82.2975 72.9466L84.2018 72.5698L84.4284 74.498C84.4659 74.8171 84.667 75.0936 84.959 75.2276L86.7205 76.0356L85.7725 77.727C85.6157 78.0069 85.6157 78.3482 85.7725 78.628Z" fill="#65C466"/>
<path d="M80.1282 73.5724C77.5842 73.5724 75.5219 75.6348 75.5219 78.1788C75.5248 80.7215 77.5855 82.782 80.1282 82.7851C82.6721 82.7851 84.7345 80.7227 84.7345 78.1788C84.7345 75.6348 82.6721 73.5724 80.1282 73.5724ZM80.1282 80.9426C78.6018 80.9426 77.3644 79.7052 77.3644 78.1788C77.3644 76.6524 78.6018 75.415 80.1282 75.415C81.6546 75.415 82.892 76.6524 82.892 78.1788C82.892 79.7052 81.6546 80.9426 80.1282 80.9426Z" fill="#65C466"/>
<path d="M78.2859 56.9896H63.5456V58.8321H78.2859V56.9896Z" fill="#65C466"/>
<path d="M87.4972 62.5168H54.3316V64.3594H87.4972V62.5168Z" fill="#65C466"/>
<path d="M87.4972 66.2021H54.3316V68.0447H87.4972V66.2021Z" fill="#65C466"/>
<path d="M67.2297 78.1788H55.2533V80.0213H67.2297V78.1788Z" fill="#65C466"/>
<defs>
<filter id="filter0_d_0_108" x="0.635227" y="0.292088" width="140.717" height="140.717" filterUnits="userSpaceOnUse" color-interpolation-filters="sRGB">
<feFlood flood-opacity="0" result="BackgroundImageFix"/>
<feColorMatrix in="SourceAlpha" type="matrix" values="0 0 0 0 0 0 0 0 0 0 0 0 0 0 0 0 0 0 127 0" result="hardAlpha"/>
<feOffset/>
<feGaussianBlur stdDeviation="14.2138"/>
<feColorMatrix type="matrix" values="0 0 0 0 0.870833 0 0 0 0 0.870833 0 0 0 0 0.870833 0 0 0 1 0"/>
<feBlend mode="normal" in2="BackgroundImageFix" result="effect1_dropShadow_0_108"/>
<feBlend mode="normal" in="SourceGraphic" in2="effect1_dropShadow_0_108" result="shape"/>
</filter>
</defs>
</svg>
