<svg width="35" height="35" viewBox="0 0 35 35" fill="none" xmlns="http://www.w3.org/2000/svg">
<path d="M29.3743 22.287C27.5166 20.4293 25.3054 19.0541 22.8928 18.2216C25.4767 16.4419 27.1743 13.4635 27.1743 10.0956C27.1743 4.65833 22.7507 0.234741 17.3135 0.234741C11.8762 0.234741 7.45264 4.65833 7.45264 10.0956C7.45264 13.4635 9.15024 16.4419 11.7342 18.2216C9.32167 19.0541 7.11045 20.4293 5.25268 22.287C2.03111 25.5087 0.256897 29.7919 0.256897 34.3479H2.92199C2.92199 26.4124 9.37797 19.9564 17.3135 19.9564C25.249 19.9564 31.705 26.4124 31.705 34.3479H34.3701C34.3701 29.7919 32.5958 25.5087 29.3743 22.287ZM17.3135 17.2913C13.3458 17.2913 10.1177 14.0634 10.1177 10.0956C10.1177 6.12779 13.3458 2.89983 17.3135 2.89983C21.2812 2.89983 24.5092 6.12779 24.5092 10.0956C24.5092 14.0634 21.2812 17.2913 17.3135 17.2913Z" fill="#C2C1C2"/>
</svg>
