<svg width="21" height="21" viewBox="0 0 21 21" fill="none" xmlns="http://www.w3.org/2000/svg">
<path d="M19.6432 3.69897C19.4542 3.18585 19.1514 2.7211 18.7591 2.33875C18.3767 1.94644 17.912 1.64362 17.3974 1.45316C16.981 1.29112 16.3541 1.09931 15.1999 1.04671C13.952 0.989859 13.5782 0.977051 10.4184 0.977051C7.25729 0.977051 6.88344 0.988438 5.63547 1.04671C4.4813 1.09931 3.85591 1.29112 3.43802 1.45316C2.9249 1.64362 2.45869 1.94644 2.07776 2.33875C1.68404 2.7211 1.38272 3.18585 1.19226 3.69897C1.03022 4.11685 0.836888 4.74368 0.784297 5.89784C0.727441 7.14439 0.716064 7.51966 0.716064 10.6794C0.716064 13.8391 0.727441 14.2144 0.784297 15.4623C0.836888 16.6165 1.03022 17.2419 1.19226 17.6598C1.38272 18.1729 1.68404 18.6377 2.07776 19.02C2.45869 19.4138 2.92348 19.7152 3.43802 19.9056C3.85591 20.0677 4.4813 20.2609 5.63547 20.3135C6.88344 20.3704 7.25729 20.3817 10.4184 20.3817C13.5782 20.3817 13.952 20.3704 15.1999 20.3135C16.3541 20.2609 16.981 20.0677 17.3974 19.9056C18.4294 19.5076 19.2452 18.6917 19.6432 17.6598C19.8052 17.2419 19.9985 16.6165 20.0511 15.4623C20.108 14.2144 20.1208 13.8391 20.1208 10.6794C20.1208 7.51966 20.108 7.14439 20.0511 5.89784C19.9985 4.74368 19.8067 4.11685 19.6432 3.69897ZM10.4184 16.7558C7.06114 16.7558 4.34061 14.0353 4.34061 10.6794C4.34061 7.32351 7.06114 4.60156 10.4184 4.60156C13.7743 4.60156 16.4948 7.32351 16.4948 10.6794C16.4948 14.0353 13.7743 16.7558 10.4184 16.7558ZM16.7351 5.78272C15.9519 5.78272 15.3151 5.14594 15.3151 4.36133C15.3151 3.57815 15.9519 2.94143 16.7351 2.94143C17.5197 2.94143 18.1564 3.57815 18.1564 4.36133C18.155 5.14594 17.5197 5.78272 16.7351 5.78272Z" fill="url(#paint0_linear_0_264)"/>
<defs>
<linearGradient id="paint0_linear_0_264" x1="10.4184" y1="0.977051" x2="10.4184" y2="20.3817" gradientUnits="userSpaceOnUse">
<stop stop-color="white"/>
<stop offset="1" stop-color="white"/>
</linearGradient>
</defs>
</svg>
