<svg width="40" height="40" viewBox="0 0 40 40" fill="none" xmlns="http://www.w3.org/2000/svg">
<path d="M20.0972 0.0693359C9.31321 0.0693359 0.571716 8.81083 0.571716 19.5949C0.571716 30.3789 9.31321 39.1204 20.0972 39.1204C30.8798 39.1204 39.6214 30.3789 39.6214 19.5949C39.6214 8.81083 30.8798 0.0693359 20.0972 0.0693359ZM30.0015 21.7071C30.9111 22.5954 31.8734 23.4311 32.6907 24.4119C33.0532 24.8468 33.3943 25.2946 33.653 25.7992C34.024 26.5184 33.6899 27.3087 33.0461 27.3513L29.0449 27.3499C28.0115 27.4352 27.19 27.0188 26.4963 26.3123C25.9434 25.7495 25.4303 25.1482 24.8973 24.5668C24.6798 24.328 24.451 24.1021 24.1766 23.9258C23.6323 23.5705 23.1575 23.6799 22.8462 24.2484C22.5278 24.8284 22.4539 25.4709 22.4241 26.1162C22.38 27.06 22.0957 27.3058 21.1491 27.3499C19.1279 27.4451 17.209 27.1382 15.4252 26.119C13.8517 25.2193 12.635 23.9499 11.5732 22.5129C9.50655 19.7114 7.92453 16.637 6.50315 13.4744C6.18334 12.7623 6.41645 12.3813 7.20248 12.3671C8.50873 12.3415 9.81357 12.3444 11.1198 12.3657C11.6514 12.3742 12.0025 12.6784 12.2072 13.1788C12.9122 14.9143 13.7764 16.5659 14.8609 18.0982C15.1494 18.5061 15.4451 18.9126 15.8644 19.2012C16.3277 19.5181 16.6802 19.4143 16.8991 18.8969C17.0398 18.5672 17.0996 18.2161 17.1294 17.8636C17.2332 16.6568 17.246 15.4501 17.0669 14.2476C16.9546 13.4957 16.531 13.0096 15.782 12.8675C15.3996 12.795 15.455 12.6542 15.6412 12.4368C15.9639 12.0587 16.2652 11.8256 16.8693 11.8256L21.3893 11.8242C22.1014 11.9649 22.2606 12.2847 22.3572 13.0011L22.3615 18.0243C22.353 18.3014 22.5008 19.1244 22.9997 19.3063C23.3991 19.4385 23.6635 19.1187 23.9023 18.8657C24.9854 17.7144 25.7572 16.357 26.4494 14.9526C26.755 14.3329 27.018 13.6919 27.2738 13.0494C27.4643 12.5747 27.7599 12.3401 28.2958 12.3486L32.6481 12.3543C32.776 12.3543 32.9053 12.3543 33.0333 12.3771C33.7667 12.5022 33.9671 12.8177 33.7411 13.5341C33.3829 14.657 32.6893 15.5937 32.0113 16.5332C31.2835 17.5381 30.5089 18.5075 29.7883 19.5181C29.1273 20.4406 29.1799 20.9054 30.0015 21.7071Z" fill="url(#paint0_linear_0_266)"/>
<defs>
<linearGradient id="paint0_linear_0_266" x1="20.0973" y1="0.0693359" x2="20.0973" y2="39.1204" gradientUnits="userSpaceOnUse">
<stop stop-color="white"/>
<stop offset="1" stop-color="white"/>
</linearGradient>
</defs>
</svg>
