<svg width="43" height="42" viewBox="0 0 43 42" fill="none" xmlns="http://www.w3.org/2000/svg">
<path d="M21.4191 0.0693359C10.0381 0.0693359 0.809082 9.29837 0.809082 20.6794C0.809082 32.0604 10.0381 41.2894 21.4191 41.2894C32.8001 41.2894 42.0291 32.0604 42.0291 20.6794C42.0291 9.29837 32.8001 0.0693359 21.4191 0.0693359ZM33.1825 25.559C33.1256 26.8183 32.9252 27.6782 32.6324 28.4316C32.0169 30.0207 30.7604 31.2772 29.1713 31.8926C28.418 32.1854 27.558 32.3845 26.2987 32.4427C25.0365 32.4996 24.6329 32.5138 21.4191 32.5138C18.2054 32.5138 17.8017 32.4996 16.5395 32.4427C15.2802 32.3845 14.4202 32.1854 13.6669 31.8926C12.8766 31.5956 12.1616 31.1294 11.5703 30.5282C10.9691 29.9369 10.5029 29.2204 10.2058 28.4316C9.91302 27.6782 9.71262 26.8183 9.65576 25.559C9.59749 24.2968 9.58467 23.8931 9.58467 20.6794C9.58467 17.4656 9.59749 17.062 9.65576 15.7998C9.71262 14.5404 9.91302 13.6805 10.2058 12.9272C10.5029 12.1383 10.9691 11.4219 11.5703 10.8306C12.1616 10.2294 12.8766 9.76319 13.6669 9.46612C14.4202 9.17332 15.2802 8.97429 16.5395 8.91602C17.8017 8.85916 18.2054 8.84496 21.4191 8.84496C24.6329 8.84496 25.0365 8.85916 26.2987 8.91602C27.558 8.97429 28.418 9.17332 29.1713 9.46612C29.9602 9.76319 30.6766 10.2294 31.2679 10.8306C31.8691 11.4219 32.3353 12.1383 32.6324 12.9272C32.9252 13.6805 33.1256 14.5404 33.1825 15.7998C33.2408 17.062 33.2535 17.4656 33.2535 20.6794C33.2535 23.8931 33.2408 24.2968 33.1825 25.559Z" fill="url(#paint0_linear_0_265)"/>
<defs>
<linearGradient id="paint0_linear_0_265" x1="21.4191" y1="0.0693359" x2="21.4191" y2="41.2894" gradientUnits="userSpaceOnUse">
<stop stop-color="white"/>
<stop offset="1" stop-color="white"/>
</linearGradient>
</defs>
</svg>
