<svg width="677" height="677" viewBox="0 0 677 677" fill="none" xmlns="http://www.w3.org/2000/svg">
<path d="M656.227 397.786H630.06L562.815 232.969C582.151 223.178 595.568 203.324 595.568 180.206C595.568 169.273 586.721 160.426 575.788 160.426C564.855 160.426 556.008 169.273 556.008 180.206C556.008 191.12 547.141 199.986 536.228 199.986C525.932 199.986 520.871 196.201 510.382 187.644C496.32 176.169 477.042 160.426 437.328 160.426C410.377 160.426 392.35 167.786 380.121 177.621C373.997 171.56 366.483 167.021 358.208 164.07V156.783C381.182 148.59 397.768 126.84 397.768 101.086C397.768 75.801 367.654 27.6499 354.713 8.89317C347.295 -1.80781 329.563 -1.80781 322.145 8.89317C309.203 27.6499 279.088 75.801 279.088 101.086C279.088 126.84 295.675 148.59 318.648 156.783V164.07C310.374 167.021 302.86 171.56 296.736 177.621C284.507 167.786 266.479 160.426 239.528 160.426C199.814 160.426 180.537 176.169 166.474 187.644C155.986 196.201 150.925 199.986 140.629 199.986C129.715 199.986 120.849 191.12 120.849 180.206C120.849 169.273 112.002 160.426 101.069 160.426C90.1356 160.426 81.2887 169.273 81.2887 180.206C81.2887 203.324 94.7061 223.178 114.042 232.969L46.7963 397.786H20.6301C9.69702 397.786 0.850098 406.633 0.850098 417.566C0.850098 472.097 45.2192 516.466 99.75 516.466H180.189C234.719 516.466 279.088 472.097 279.088 417.566C279.088 406.633 270.241 397.786 259.308 397.786H233.142L167.539 233.776C177.243 229.493 184.95 223.637 191.488 218.299C203.522 208.467 213.915 199.986 239.528 199.986C275.651 199.986 278.838 216.675 279.088 220.249C279.091 220.389 279.17 220.502 279.178 220.642C279.555 246.007 295.942 267.366 318.648 275.462V560.987C295.675 569.18 279.088 590.93 279.088 616.684C279.088 627.597 270.222 636.464 259.308 636.464H219.748C208.815 636.464 199.968 645.311 199.968 656.244C199.968 667.177 208.815 676.024 219.748 676.024H457.108C468.041 676.024 476.888 667.177 476.888 656.244C476.888 645.311 468.041 636.464 457.108 636.464H417.548C406.635 636.464 397.768 627.597 397.768 616.684C397.768 590.93 381.182 569.18 358.208 560.987V275.463C380.943 267.354 397.348 245.955 397.689 220.548C397.694 220.469 397.744 220.406 397.75 220.327C397.981 216.946 400.917 199.986 437.328 199.986C462.942 199.986 473.334 208.467 485.368 218.299C491.906 223.637 499.614 229.493 509.318 233.776L443.714 397.786H417.548C406.615 397.786 397.768 406.633 397.768 417.566C397.768 472.097 442.137 516.466 496.668 516.466H577.107C631.637 516.466 676.007 472.097 676.007 417.566C676.007 406.633 667.16 397.786 656.227 397.786V397.786ZM89.409 397.786L140.629 273.031L190.529 397.786H89.409ZM486.327 397.786L536.228 273.031L587.448 397.786H486.327Z" fill="#FAFAFA"/>
</svg>
