<svg width="40" height="40" viewBox="0 0 40 40" fill="none" xmlns="http://www.w3.org/2000/svg">
<path d="M19.8599 0.0693359C9.07727 0.0693359 0.334351 8.81225 0.334351 19.5949C0.334351 30.376 9.07727 39.1204 19.8599 39.1204C30.6411 39.1204 39.3854 30.376 39.3854 19.5949C39.3854 8.81225 30.6411 0.0693359 19.8599 0.0693359ZM32.0596 19.6147C32.0596 19.6147 32.0596 23.5747 31.5579 25.4837C31.2764 26.5284 30.452 27.3528 29.4073 27.6342C27.497 28.1374 19.8599 28.1374 19.8599 28.1374C19.8599 28.1374 12.2413 28.1374 10.3124 27.6143C9.26772 27.3329 8.44332 26.5085 8.16188 25.4638C7.65871 23.5748 7.65875 19.5949 7.65875 19.5949C7.65875 19.5949 7.65871 15.6348 8.16188 13.7259C8.44332 12.6798 9.28762 11.8355 10.3124 11.5555C12.2214 11.0523 19.8599 11.0523 19.8599 11.0523C19.8599 11.0523 27.497 11.0523 29.4073 11.5754C30.452 11.8554 31.2764 12.6798 31.5579 13.7259C32.0809 15.6348 32.0596 19.6147 32.0596 19.6147Z" fill="url(#paint0_linear_0_268)"/>
<defs>
<linearGradient id="paint0_linear_0_268" x1="19.8599" y1="0.0693359" x2="19.8599" y2="39.1204" gradientUnits="userSpaceOnUse">
<stop stop-color="white"/>
<stop offset="1" stop-color="white"/>
</linearGradient>
</defs>
</svg>
