<svg width="58" height="58" viewBox="0 0 58 58" fill="none" xmlns="http://www.w3.org/2000/svg">
<path d="M28.6045 57.6421C44.3875 57.6421 57.1821 44.8475 57.1821 29.0645C57.1821 13.2815 44.3875 0.486863 28.6045 0.486862C12.8215 0.486861 0.0269074 13.2815 0.026906 29.0645C0.0269046 44.8474 12.8214 57.6421 28.6045 57.6421ZM14.8408 27.6982C14.8883 27.6455 14.9386 27.5952 14.9913 27.5478L35.404 9.17642C36.2565 8.43881 37.5456 8.53186 38.2832 9.38441C39.0004 10.2133 38.9349 11.4604 38.1351 12.2097L19.4086 29.0644L38.1351 45.9191C38.9579 46.6898 39 47.9816 38.2293 48.8043C37.4799 49.6041 36.2327 49.6696 35.4039 48.9524L14.9913 30.5811C14.1537 29.8266 14.0864 28.5358 14.8408 27.6982Z" fill="#65C466"/>
</svg>
